<svg width="274" height="374" viewBox="0 0 274 374" fill="none" xmlns="http://www.w3.org/2000/svg">
<path d="M207.755 152.857L173.544 212.283L164.997 198.628L233.398 193.821L233.898 256.114L169.953 256.455L174.253 248.173L207.635 298.827L153.924 332.449L122.947 280.29L132.275 280.04L104.029 337.41L48.6157 309.491L82.8266 250.065L91.3742 263.719L22.9728 268.526L22.0722 206.484L86.0171 206.144L81.717 214.425L48.3352 163.771L102.046 130.149L133.023 182.309L123.695 182.558L151.941 125.189L207.755 152.857Z" fill="#262626"/>
<path d="M145.853 28.3698L130.654 54.7713L126.856 48.7049L157.246 46.5693L157.468 74.2447L129.058 74.3958L130.969 70.7165L145.8 93.2207L121.937 108.158L108.175 84.9851L112.319 84.8743L99.7702 110.362L75.1514 97.9585L90.3504 71.5569L94.1479 77.6234L63.7589 79.759L63.3588 52.195L91.7679 52.0439L89.8575 55.7232L75.0268 33.219L98.8893 18.2816L112.652 41.4546L108.507 41.5654L121.056 16.0776L145.853 28.3698Z" fill="#262626"/>
</svg>
