<svg width="185" height="367" viewBox="0 0 185 367" fill="none" xmlns="http://www.w3.org/2000/svg">
<path d="M182.642 105.513L147.626 124.115V114.814L182.642 133.416L163.767 164.055L132.307 144.632L136.957 141.897L137.778 176.913H101.121L101.941 141.897L106.592 144.632L75.1323 164.055L56.53 133.416L91.546 114.814V124.115L56.53 105.513L75.1323 74.874L106.592 94.297L101.941 97.0326L101.121 62.0166H137.778L136.957 97.0326L132.307 94.297L163.767 74.874L182.642 105.513Z" fill="#262626"/>
<path d="M78.4671 206.253L67.0577 227.821L63.8452 223.084L88.1045 220.464L89.073 242.589L66.3415 243.562L67.7653 240.563L80.2773 258.113L61.607 270.774L49.9309 252.657L53.2444 252.444L43.9298 273.202L23.873 264.022L35.2824 242.453L38.4949 247.191L14.2356 249.81L13.1278 227.78L35.8592 226.807L34.4354 229.806L21.9234 212.256L40.5937 199.595L52.2698 217.712L48.9563 217.925L58.2709 197.167L78.4671 206.253Z" fill="#262626"/>
</svg>
