<svg width="71" height="64" viewBox="0 0 71 64" fill="none" xmlns="http://www.w3.org/2000/svg">
<path d="M31.96 62.92C49.0588 62.92 62.92 49.0587 62.92 31.9599C62.92 14.8612 49.0588 1 31.96 1C14.8613 1 1 14.8612 1 31.9599C1 49.0587 14.8613 62.92 31.96 62.92Z" stroke="#01F813" stroke-width="0.5"/>
<path d="M39.2215 62.9091C56.314 62.9091 70.1702 49.0529 70.1702 31.9604C70.1702 14.8679 56.314 1.01172 39.2215 1.01172C22.1289 1.01172 8.27271 14.8679 8.27271 31.9604C8.27271 49.0529 22.1289 62.9091 39.2215 62.9091Z" fill="#0D360D"/>
<path fill-rule="evenodd" clip-rule="evenodd" d="M44.3454 27.2725L39.5709 28.5476L36.0759 25.0526L37.3554 20.2826L42.1299 19L45.6249 22.495L44.3454 27.2725Z" stroke="#01F813" stroke-width="0.741896"/>
<path fill-rule="evenodd" clip-rule="evenodd" d="M44.3454 43.0225L39.5709 44.2976L36.0759 40.8026L37.3554 36.0251L42.1299 34.75L45.6249 38.245L44.3454 43.0225Z" stroke="#01F813" stroke-width="0.741896"/>
<path fill-rule="evenodd" clip-rule="evenodd" d="M30.308 27.7376L29 32.6201L32.5723 36.1901L37.4525 34.8851L38.7598 30.0026L35.1875 26.4326L30.308 27.7376Z" stroke="#01F813" stroke-width="0.741896"/>
<path fill-rule="evenodd" clip-rule="evenodd" d="M51.7003 27.7449L46.8207 26.4399L43.25 30.0099L44.5572 34.8925L49.4375 36.1974L53.0098 32.6274L51.7003 27.7449Z" stroke="#01F813" stroke-width="0.741896"/>
</svg>
