<svg width="234" height="59" viewBox="0 0 234 59" fill="none" xmlns="http://www.w3.org/2000/svg">
<path d="M0.742393 35.499L11.9554 10.0973H19.0316L30.281 35.499H22.8056L14.0239 13.6172H16.8543L8.07261 35.499H0.742393ZM6.8751 30.5638L8.72579 25.2658H21.1364L22.987 30.5638H6.8751ZM32.3179 35.499V10.0973H43.9301C46.2526 10.0973 48.2484 10.4723 49.9177 11.2222C51.6111 11.9722 52.9175 13.0608 53.8368 14.4882C54.7561 15.8913 55.2158 17.5606 55.2158 19.4959C55.2158 21.4071 54.7561 23.0643 53.8368 24.4674C52.9175 25.8464 51.6111 26.9108 49.9177 27.6608C48.2484 28.3865 46.2526 28.7494 43.9301 28.7494H36.3096L39.503 25.7375V35.499H32.3179ZM48.0307 35.499L41.7166 26.2455H49.3734L55.7238 35.499H48.0307ZM39.503 26.4996L36.3096 23.1973H43.4947C44.9946 23.1973 46.1074 22.8707 46.8332 22.2175C47.5832 21.5644 47.9581 20.6572 47.9581 19.4959C47.9581 18.3105 47.5832 17.3912 46.8332 16.738C46.1074 16.0848 44.9946 15.7583 43.4947 15.7583H36.3096L39.503 12.456V26.4996ZM59.1797 35.499V10.0973H72.1709C75.5094 10.0973 78.0012 10.7142 79.6462 11.948C81.2913 13.1576 82.1138 14.7543 82.1138 16.738C82.1138 18.0444 81.763 19.1935 81.0615 20.1854C80.3841 21.1531 79.4164 21.9272 78.1584 22.5079C76.9246 23.0643 75.4489 23.3425 73.7313 23.3425L74.457 21.6006C76.2472 21.6006 77.8076 21.8789 79.1382 22.4353C80.4688 22.9675 81.4969 23.7537 82.2227 24.794C82.9726 25.8101 83.3476 27.056 83.3476 28.5317C83.3476 30.7332 82.4525 32.4508 80.6623 33.6846C78.8963 34.8942 76.3077 35.499 72.8966 35.499H59.1797ZM66.2922 30.3098H72.316C73.5498 30.3098 74.4812 30.1042 75.1102 29.6929C75.7634 29.2575 76.09 28.6043 76.09 27.7334C76.09 26.8624 75.7634 26.2213 75.1102 25.8101C74.4812 25.3746 73.5498 25.1569 72.316 25.1569H65.7841V20.1854H71.2274C72.437 20.1854 73.3442 19.9798 73.949 19.5685C74.5538 19.1572 74.8562 18.5403 74.8562 17.7178C74.8562 16.8953 74.5538 16.2905 73.949 15.9034C73.3442 15.4921 72.437 15.2865 71.2274 15.2865H66.2922V30.3098ZM87.0691 35.499V10.0973H94.2542V35.499H87.0691ZM104.773 35.499V15.7945H96.971V10.0973H119.724V15.7945H111.958V35.499H104.773ZM122.401 35.499V10.0973H134.013C136.335 10.0973 138.331 10.4723 140 11.2222C141.694 11.9722 143 13.0608 143.919 14.4882C144.839 15.8913 145.298 17.5606 145.298 19.4959C145.298 21.4071 144.839 23.0643 143.919 24.4674C143 25.8464 141.694 26.9108 140 27.6608C138.331 28.3865 136.335 28.7494 134.013 28.7494H126.392L129.586 25.7375V35.499H122.401ZM138.113 35.499L131.799 26.2455H139.456L145.806 35.499H138.113ZM129.586 26.4996L126.392 23.1973H133.577C135.077 23.1973 136.19 22.8707 136.916 22.2175C137.666 21.5644 138.041 20.6572 138.041 19.4959C138.041 18.3105 137.666 17.3912 136.916 16.738C136.19 16.0848 135.077 15.7583 133.577 15.7583H126.392L129.586 12.456V26.4996ZM155.867 19.9314H167.66V25.302H155.867V19.9314ZM156.375 29.9469H169.656V35.499H149.262V10.0973H169.184V15.6494H156.375V29.9469ZM173.643 35.499V10.0973H179.558L193.566 27.0076H190.771V10.0973H197.811V35.499H191.896L177.889 18.5887H180.683V35.499H173.643ZM202.879 35.499V10.0973H214.891C217.697 10.0973 220.165 10.6174 222.294 11.6577C224.423 12.6979 226.08 14.1616 227.265 16.0486C228.475 17.9355 229.08 20.1854 229.08 22.7982C229.08 25.3867 228.475 27.6366 227.265 29.5478C226.08 31.4347 224.423 32.8984 222.294 33.9386C220.165 34.9789 217.697 35.499 214.891 35.499H202.879ZM210.065 29.7655H214.601C216.052 29.7655 217.31 29.4994 218.375 28.9672C219.463 28.4107 220.31 27.6124 220.915 26.5721C221.519 25.5077 221.822 24.2497 221.822 22.7982C221.822 21.3224 221.519 20.0644 220.915 19.0242C220.31 17.9839 219.463 17.1977 218.375 16.6655C217.31 16.109 216.052 15.8308 214.601 15.8308H210.065V29.7655Z" fill="white"/>
<path d="M6.41435 54.8452C5.54835 54.8452 4.77323 54.6581 4.08898 54.2839C3.41543 53.9098 2.8862 53.3966 2.50132 52.7444C2.11643 52.0922 1.92398 51.3438 1.92398 50.4992C1.92398 49.6546 2.11643 48.9062 2.50132 48.254C2.8862 47.6019 3.41543 47.094 4.08898 46.7305C4.77323 46.3563 5.54835 46.1692 6.41435 46.1692C7.18413 46.1692 7.86838 46.3242 8.46709 46.6343C9.0765 46.9336 9.54692 47.3827 9.87835 47.9814L8.70765 48.7351C8.42967 48.3182 8.08755 48.0135 7.68128 47.821C7.2857 47.6179 6.85804 47.5163 6.39832 47.5163C5.84237 47.5163 5.34522 47.6393 4.90687 47.8852C4.46853 48.1311 4.12106 48.4785 3.86446 48.9276C3.60787 49.3659 3.47958 49.8898 3.47958 50.4992C3.47958 51.1086 3.60787 51.6378 3.86446 52.0869C4.12106 52.5359 4.46853 52.8834 4.90687 53.1293C5.34522 53.3752 5.84237 53.4981 6.39832 53.4981C6.85804 53.4981 7.2857 53.4019 7.68128 53.2095C8.08755 53.0063 8.42967 52.6963 8.70765 52.2793L9.87835 53.017C9.54692 53.605 9.0765 54.0594 8.46709 54.3802C7.86838 54.6902 7.18413 54.8452 6.41435 54.8452ZM11.8716 54.749V46.2494H13.347V48.5587L13.2027 47.9814C13.4379 47.3934 13.8334 46.9443 14.3894 46.6343C14.9453 46.3242 15.6296 46.1692 16.4421 46.1692V47.6607C16.378 47.65 16.3138 47.6446 16.2497 47.6446C16.1962 47.6446 16.1428 47.6446 16.0893 47.6446C15.2661 47.6446 14.6139 47.8905 14.1328 48.3823C13.6517 48.8741 13.4111 49.5851 13.4111 50.5152V54.749H11.8716ZM19.053 57.9564C18.6468 57.9564 18.2512 57.8869 17.8663 57.7479C17.4814 57.6197 17.15 57.4272 16.872 57.1706L17.5295 56.0159C17.7433 56.2191 17.9786 56.3741 18.2352 56.481C18.4917 56.5879 18.7644 56.6414 19.053 56.6414C19.4272 56.6414 19.7373 56.5452 19.9832 56.3527C20.2291 56.1603 20.459 55.8182 20.6728 55.3264L21.202 54.1557L21.3624 53.9632L24.6981 46.2494H26.2056L22.084 55.599C21.8381 56.1977 21.5602 56.6681 21.2501 57.0102C20.9508 57.3524 20.6193 57.5929 20.2558 57.7319C19.8923 57.8816 19.4914 57.9564 19.053 57.9564ZM21.0737 55.0217L17.1927 46.2494H18.7964L22.1001 53.8189L21.0737 55.0217ZM32.1488 54.8452C31.4432 54.8452 30.7963 54.6849 30.2083 54.3641C29.631 54.0327 29.1659 53.5462 28.8131 52.9048C28.471 52.2633 28.2999 51.4614 28.2999 50.4992C28.2999 49.537 28.4656 48.7351 28.797 48.0937C29.1392 47.4522 29.5989 46.9711 30.1762 46.6503C30.7643 46.3296 31.4218 46.1692 32.1488 46.1692C32.9827 46.1692 33.7204 46.351 34.3619 46.7145C35.0034 47.078 35.5112 47.5858 35.8854 48.238C36.2596 48.8795 36.4467 49.6332 36.4467 50.4992C36.4467 51.3652 36.2596 52.1243 35.8854 52.7765C35.5112 53.4286 35.0034 53.9365 34.3619 54.3C33.7204 54.6635 32.9827 54.8452 32.1488 54.8452ZM27.6424 57.8602V46.2494H29.1178V48.5427L29.0216 50.5152L29.1819 52.4878V57.8602H27.6424ZM32.0205 53.4981C32.5657 53.4981 33.0522 53.3752 33.4799 53.1293C33.9182 52.8834 34.2603 52.5359 34.5062 52.0869C34.7628 51.6271 34.8911 51.0979 34.8911 50.4992C34.8911 49.8898 34.7628 49.3659 34.5062 48.9276C34.2603 48.4785 33.9182 48.1311 33.4799 47.8852C33.0522 47.6393 32.5657 47.5163 32.0205 47.5163C31.4859 47.5163 30.9995 47.6393 30.5611 47.8852C30.1335 48.1311 29.7913 48.4785 29.5347 48.9276C29.2888 49.3659 29.1659 49.8898 29.1659 50.4992C29.1659 51.0979 29.2888 51.6271 29.5347 52.0869C29.7913 52.5359 30.1335 52.8834 30.5611 53.1293C30.9995 53.3752 31.4859 53.4981 32.0205 53.4981ZM41.4926 54.8452C40.6373 54.8452 39.9744 54.6154 39.504 54.1557C39.0336 53.6959 38.7984 53.0384 38.7984 52.1831V44.3891H40.3379V52.1189C40.3379 52.5787 40.4502 52.9315 40.6747 53.1774C40.9099 53.4233 41.2414 53.5462 41.669 53.5462C42.1501 53.5462 42.5511 53.4126 42.8718 53.1453L43.3529 54.2519C43.1177 54.455 42.8344 54.6047 42.5029 54.7009C42.1822 54.7971 41.8454 54.8452 41.4926 54.8452ZM37.3551 47.5163V46.2494H42.7756V47.5163H37.3551ZM48.5727 54.8452C47.7174 54.8452 46.9583 54.6581 46.2954 54.2839C45.6326 53.9098 45.1087 53.3966 44.7238 52.7444C44.3389 52.0815 44.1465 51.3331 44.1465 50.4992C44.1465 49.6546 44.3389 48.9062 44.7238 48.254C45.1087 47.6019 45.6326 47.094 46.2954 46.7305C46.9583 46.3563 47.7174 46.1692 48.5727 46.1692C49.4173 46.1692 50.1711 46.3563 50.8339 46.7305C51.5075 47.094 52.0314 47.6019 52.4056 48.254C52.7904 48.8955 52.9829 49.6439 52.9829 50.4992C52.9829 51.3438 52.7904 52.0922 52.4056 52.7444C52.0314 53.3966 51.5075 53.9098 50.8339 54.2839C50.1711 54.6581 49.4173 54.8452 48.5727 54.8452ZM48.5727 53.4981C49.118 53.4981 49.6044 53.3752 50.0321 53.1293C50.4704 52.8834 50.8125 52.5359 51.0584 52.0869C51.3043 51.6271 51.4273 51.0979 51.4273 50.4992C51.4273 49.8898 51.3043 49.3659 51.0584 48.9276C50.8125 48.4785 50.4704 48.1311 50.0321 47.8852C49.6044 47.6393 49.118 47.5163 48.5727 47.5163C48.0274 47.5163 47.541 47.6393 47.1133 47.8852C46.6857 48.1311 46.3436 48.4785 46.087 48.9276C45.8304 49.3659 45.7021 49.8898 45.7021 50.4992C45.7021 51.0979 45.8304 51.6271 46.087 52.0869C46.3436 52.5359 46.6857 52.8834 47.1133 53.1293C47.541 53.3752 48.0274 53.4981 48.5727 53.4981ZM64.6951 54.749V52.9529L64.6149 52.6161V49.553C64.6149 48.9009 64.4224 48.3984 64.0375 48.0455C63.6633 47.682 63.0967 47.5003 62.3376 47.5003C61.8351 47.5003 61.3433 47.5858 60.8622 47.7569C60.3811 47.9172 59.9748 48.1364 59.6434 48.4144L59.0019 47.2597C59.4403 46.9069 59.9641 46.6396 60.5735 46.4579C61.1936 46.2654 61.8405 46.1692 62.514 46.1692C63.6794 46.1692 64.5775 46.4525 65.2083 47.0192C65.839 47.5858 66.1544 48.4518 66.1544 49.6172V54.749H64.6951ZM61.9046 54.8452C61.2738 54.8452 60.7179 54.7383 60.2368 54.5245C59.7664 54.3107 59.4028 54.0167 59.1463 53.6425C58.8897 53.2576 58.7614 52.8246 58.7614 52.3435C58.7614 51.8837 58.8683 51.4668 59.0821 51.0926C59.3066 50.7184 59.6648 50.419 60.1566 50.1945C60.6591 49.97 61.3326 49.8577 62.1773 49.8577H64.8715V50.9643H62.2414C61.4716 50.9643 60.9531 51.0926 60.6858 51.3492C60.4185 51.6058 60.2849 51.9158 60.2849 52.2793C60.2849 52.6963 60.4506 53.0331 60.782 53.2897C61.1135 53.5356 61.5732 53.6585 62.1612 53.6585C62.7385 53.6585 63.241 53.5302 63.6687 53.2736C64.107 53.017 64.4224 52.6428 64.6149 52.151L64.9196 53.2095C64.7164 53.712 64.3583 54.1129 63.8451 54.4122C63.3319 54.7009 62.6851 54.8452 61.9046 54.8452ZM69.0035 54.749V46.2494H70.4789V48.5587L70.3346 47.9814C70.5698 47.3934 70.9654 46.9443 71.5213 46.6343C72.0773 46.3242 72.7615 46.1692 73.5741 46.1692V47.6607C73.5099 47.65 73.4458 47.6446 73.3816 47.6446C73.3282 47.6446 73.2747 47.6446 73.2213 47.6446C72.398 47.6446 71.7458 47.8905 71.2647 48.3823C70.7836 48.8741 70.5431 49.5851 70.5431 50.5152V54.749H69.0035ZM79.978 54.8452C79.251 54.8452 78.5935 54.6849 78.0054 54.3641C77.4281 54.0327 76.9684 53.5462 76.6262 52.9048C76.2948 52.2633 76.1291 51.4614 76.1291 50.4992C76.1291 49.537 76.3002 48.7351 76.6423 48.0937C76.9951 47.4522 77.4602 46.9711 78.0375 46.6503C78.6255 46.3296 79.2724 46.1692 79.978 46.1692C80.8119 46.1692 81.5496 46.351 82.1911 46.7145C82.8326 47.078 83.3404 47.5858 83.7146 48.238C84.0888 48.8795 84.2759 49.6332 84.2759 50.4992C84.2759 51.3652 84.0888 52.1243 83.7146 52.7765C83.3404 53.4286 82.8326 53.9365 82.1911 54.3C81.5496 54.6635 80.8119 54.8452 79.978 54.8452ZM75.4716 54.749V42.8495H77.0111V48.5106L76.8508 50.4832L76.947 52.4557V54.749H75.4716ZM79.8497 53.4981C80.3949 53.4981 80.8814 53.3752 81.3091 53.1293C81.7474 52.8834 82.0895 52.5359 82.3354 52.0869C82.592 51.6271 82.7203 51.0979 82.7203 50.4992C82.7203 49.8898 82.592 49.3659 82.3354 48.9276C82.0895 48.4785 81.7474 48.1311 81.3091 47.8852C80.8814 47.6393 80.3949 47.5163 79.8497 47.5163C79.3151 47.5163 78.8287 47.6393 78.3903 47.8852C77.9627 48.1311 77.6205 48.4785 77.3639 48.9276C77.118 49.3659 76.9951 49.8898 76.9951 50.4992C76.9951 51.0979 77.118 51.6271 77.3639 52.0869C77.6205 52.5359 77.9627 52.8834 78.3903 53.1293C78.8287 53.3752 79.3151 53.4981 79.8497 53.4981ZM86.4031 54.749V46.2494H87.9426V54.749H86.4031ZM87.1729 44.6136C86.8735 44.6136 86.6222 44.5174 86.4191 44.325C86.2267 44.1325 86.1304 43.8973 86.1304 43.6193C86.1304 43.3307 86.2267 43.0901 86.4191 42.8977C86.6222 42.7052 86.8735 42.609 87.1729 42.609C87.4722 42.609 87.7181 42.7052 87.9106 42.8977C88.1137 43.0794 88.2153 43.3093 88.2153 43.5872C88.2153 43.8759 88.119 44.1218 87.9266 44.325C87.7341 44.5174 87.4829 44.6136 87.1729 44.6136ZM90.8822 54.749V46.2494H92.3576V48.5587L92.2132 47.9814C92.4485 47.3934 92.844 46.9443 93.4 46.6343C93.9559 46.3242 94.6402 46.1692 95.4527 46.1692V47.6607C95.3886 47.65 95.3244 47.6446 95.2603 47.6446C95.2068 47.6446 95.1534 47.6446 95.0999 47.6446C94.2767 47.6446 93.6245 47.8905 93.1434 48.3823C92.6623 48.8741 92.4217 49.5851 92.4217 50.5152V54.749H90.8822ZM100.614 54.8452C99.7582 54.8452 99.0953 54.6154 98.6249 54.1557C98.1545 53.6959 97.9193 53.0384 97.9193 52.1831V44.3891H99.4588V52.1189C99.4588 52.5787 99.5711 52.9315 99.7956 53.1774C100.031 53.4233 100.362 53.5462 100.79 53.5462C101.271 53.5462 101.672 53.4126 101.993 53.1453L102.474 54.2519C102.239 54.455 101.955 54.6047 101.624 54.7009C101.303 54.7971 100.966 54.8452 100.614 54.8452ZM96.476 47.5163V46.2494H101.896V47.5163H96.476ZM109.611 54.749V52.9529L109.531 52.6161V49.553C109.531 48.9009 109.339 48.3984 108.954 48.0455C108.58 47.682 108.013 47.5003 107.254 47.5003C106.751 47.5003 106.26 47.5858 105.778 47.7569C105.297 47.9172 104.891 48.1364 104.56 48.4144L103.918 47.2597C104.356 46.9069 104.88 46.6396 105.49 46.4579C106.11 46.2654 106.757 46.1692 107.43 46.1692C108.596 46.1692 109.494 46.4525 110.124 47.0192C110.755 47.5858 111.071 48.4518 111.071 49.6172V54.749H109.611ZM106.821 54.8452C106.19 54.8452 105.634 54.7383 105.153 54.5245C104.683 54.3107 104.319 54.0167 104.062 53.6425C103.806 53.2576 103.678 52.8246 103.678 52.3435C103.678 51.8837 103.785 51.4668 103.998 51.0926C104.223 50.7184 104.581 50.419 105.073 50.1945C105.575 49.97 106.249 49.8577 107.093 49.8577H109.788V50.9643H107.158C106.388 50.9643 105.869 51.0926 105.602 51.3492C105.335 51.6058 105.201 51.9158 105.201 52.2793C105.201 52.6963 105.367 53.0331 105.698 53.2897C106.03 53.5356 106.489 53.6585 107.077 53.6585C107.655 53.6585 108.157 53.5302 108.585 53.2736C109.023 53.017 109.339 52.6428 109.531 52.151L109.836 53.2095C109.633 53.712 109.275 54.1129 108.761 54.4122C108.248 54.7009 107.601 54.8452 106.821 54.8452ZM117.64 57.9564C116.86 57.9564 116.101 57.8442 115.363 57.6197C114.636 57.4058 114.043 57.0958 113.583 56.6895L114.321 55.5028C114.716 55.8449 115.203 56.1122 115.78 56.3046C116.357 56.5078 116.961 56.6093 117.592 56.6093C118.597 56.6093 119.335 56.3741 119.805 55.9037C120.276 55.4333 120.511 54.7169 120.511 53.7547V51.9586L120.671 50.2747L120.591 48.5748V46.2494H122.051V53.5944C122.051 55.0911 121.676 56.1924 120.928 56.898C120.18 57.6036 119.084 57.9564 117.64 57.9564ZM117.448 54.3962C116.625 54.3962 115.887 54.2251 115.235 53.883C114.593 53.5302 114.08 53.0438 113.695 52.4237C113.321 51.8036 113.134 51.0872 113.134 50.2747C113.134 49.4515 113.321 48.7351 113.695 48.1257C114.08 47.5056 114.593 47.0245 115.235 46.6824C115.887 46.3403 116.625 46.1692 117.448 46.1692C118.175 46.1692 118.838 46.3189 119.436 46.6182C120.035 46.9069 120.511 47.356 120.864 47.9654C121.227 48.5748 121.409 49.3445 121.409 50.2747C121.409 51.1941 121.227 51.9586 120.864 52.568C120.511 53.1774 120.035 53.6371 119.436 53.9472C118.838 54.2465 118.175 54.3962 117.448 54.3962ZM117.624 53.0491C118.191 53.0491 118.693 52.9315 119.132 52.6963C119.57 52.4611 119.912 52.135 120.158 51.718C120.415 51.3011 120.543 50.8199 120.543 50.2747C120.543 49.7294 120.415 49.2483 120.158 48.8314C119.912 48.4144 119.57 48.0937 119.132 47.8691C118.693 47.6339 118.191 47.5163 117.624 47.5163C117.058 47.5163 116.55 47.6339 116.101 47.8691C115.662 48.0937 115.315 48.4144 115.058 48.8314C114.812 49.2483 114.69 49.7294 114.69 50.2747C114.69 50.8199 114.812 51.3011 115.058 51.718C115.315 52.135 115.662 52.4611 116.101 52.6963C116.55 52.9315 117.058 53.0491 117.624 53.0491ZM128.777 54.8452C127.868 54.8452 127.066 54.6581 126.371 54.2839C125.687 53.9098 125.153 53.3966 124.768 52.7444C124.393 52.0922 124.206 51.3438 124.206 50.4992C124.206 49.6546 124.388 48.9062 124.752 48.254C125.126 47.6019 125.634 47.094 126.275 46.7305C126.927 46.3563 127.66 46.1692 128.472 46.1692C129.295 46.1692 130.022 46.351 130.653 46.7145C131.284 47.078 131.776 47.5912 132.129 48.254C132.492 48.9062 132.674 49.6706 132.674 50.5473C132.674 50.6115 132.669 50.6863 132.658 50.7718C132.658 50.8574 132.653 50.9376 132.642 51.0124H125.409V49.9058H131.84L131.215 50.2907C131.225 49.7455 131.113 49.259 130.878 48.8314C130.643 48.4037 130.316 48.0723 129.9 47.8371C129.493 47.5912 129.017 47.4682 128.472 47.4682C127.938 47.4682 127.462 47.5912 127.045 47.8371C126.628 48.0723 126.302 48.409 126.067 48.8474C125.831 49.275 125.714 49.7669 125.714 50.3228V50.5794C125.714 51.146 125.842 51.6539 126.099 52.1029C126.366 52.5413 126.735 52.8834 127.205 53.1293C127.676 53.3752 128.216 53.4981 128.825 53.4981C129.328 53.4981 129.782 53.4126 130.188 53.2415C130.605 53.0705 130.969 52.8139 131.279 52.4718L132.129 53.4661C131.744 53.9151 131.263 54.2572 130.685 54.4924C130.119 54.7276 129.483 54.8452 128.777 54.8452ZM142.823 54.8452C141.957 54.8452 141.182 54.6581 140.498 54.2839C139.824 53.9098 139.295 53.3966 138.91 52.7444C138.525 52.0922 138.333 51.3438 138.333 50.4992C138.333 49.6546 138.525 48.9062 138.91 48.254C139.295 47.6019 139.824 47.094 140.498 46.7305C141.182 46.3563 141.957 46.1692 142.823 46.1692C143.593 46.1692 144.277 46.3242 144.876 46.6343C145.485 46.9336 145.956 47.3827 146.287 47.9814L145.116 48.7351C144.838 48.3182 144.496 48.0135 144.09 47.821C143.694 47.6179 143.267 47.5163 142.807 47.5163C142.251 47.5163 141.754 47.6393 141.316 47.8852C140.877 48.1311 140.53 48.4785 140.273 48.9276C140.017 49.3659 139.888 49.8898 139.888 50.4992C139.888 51.1086 140.017 51.6378 140.273 52.0869C140.53 52.5359 140.877 52.8834 141.316 53.1293C141.754 53.3752 142.251 53.4981 142.807 53.4981C143.267 53.4981 143.694 53.4019 144.09 53.2095C144.496 53.0063 144.838 52.6963 145.116 52.2793L146.287 53.017C145.956 53.605 145.485 54.0594 144.876 54.3802C144.277 54.6902 143.593 54.8452 142.823 54.8452ZM151.795 54.8452C150.94 54.8452 150.181 54.6581 149.518 54.2839C148.855 53.9098 148.331 53.3966 147.947 52.7444C147.562 52.0815 147.369 51.3331 147.369 50.4992C147.369 49.6546 147.562 48.9062 147.947 48.254C148.331 47.6019 148.855 47.094 149.518 46.7305C150.181 46.3563 150.94 46.1692 151.795 46.1692C152.64 46.1692 153.394 46.3563 154.057 46.7305C154.73 47.094 155.254 47.6019 155.628 48.254C156.013 48.8955 156.206 49.6439 156.206 50.4992C156.206 51.3438 156.013 52.0922 155.628 52.7444C155.254 53.3966 154.73 53.9098 154.057 54.2839C153.394 54.6581 152.64 54.8452 151.795 54.8452ZM151.795 53.4981C152.341 53.4981 152.827 53.3752 153.255 53.1293C153.693 52.8834 154.035 52.5359 154.281 52.0869C154.527 51.6271 154.65 51.0979 154.65 50.4992C154.65 49.8898 154.527 49.3659 154.281 48.9276C154.035 48.4785 153.693 48.1311 153.255 47.8852C152.827 47.6393 152.341 47.5163 151.795 47.5163C151.25 47.5163 150.764 47.6393 150.336 47.8852C149.908 48.1311 149.566 48.4785 149.31 48.9276C149.053 49.3659 148.925 49.8898 148.925 50.4992C148.925 51.0979 149.053 51.6271 149.31 52.0869C149.566 52.5359 149.908 52.8834 150.336 53.1293C150.764 53.3752 151.25 53.4981 151.795 53.4981ZM162.873 46.1692C163.568 46.1692 164.178 46.3029 164.702 46.5701C165.236 46.8374 165.653 47.2437 165.952 47.789C166.252 48.3342 166.401 49.0238 166.401 49.8577V54.749H164.862V50.0341C164.862 49.2109 164.659 48.5908 164.252 48.1738C163.857 47.7569 163.296 47.5484 162.569 47.5484C162.023 47.5484 161.548 47.6553 161.141 47.8691C160.735 48.083 160.42 48.3984 160.195 48.8153C159.981 49.2323 159.874 49.7508 159.874 50.3709V54.749H158.335V46.2494H159.81V48.5427L159.57 47.9333C159.848 47.3773 160.275 46.9443 160.853 46.6343C161.43 46.3242 162.104 46.1692 162.873 46.1692ZM172.955 54.8452C172.089 54.8452 171.314 54.6581 170.63 54.2839C169.956 53.9098 169.427 53.3966 169.042 52.7444C168.657 52.0922 168.465 51.3438 168.465 50.4992C168.465 49.6546 168.657 48.9062 169.042 48.254C169.427 47.6019 169.956 47.094 170.63 46.7305C171.314 46.3563 172.089 46.1692 172.955 46.1692C173.725 46.1692 174.409 46.3242 175.008 46.6343C175.617 46.9336 176.088 47.3827 176.419 47.9814L175.248 48.7351C174.971 48.3182 174.628 48.0135 174.222 47.821C173.827 47.6179 173.399 47.5163 172.939 47.5163C172.383 47.5163 171.886 47.6393 171.448 47.8852C171.009 48.1311 170.662 48.4785 170.405 48.9276C170.149 49.3659 170.02 49.8898 170.02 50.4992C170.02 51.1086 170.149 51.6378 170.405 52.0869C170.662 52.5359 171.009 52.8834 171.448 53.1293C171.886 53.3752 172.383 53.4981 172.939 53.4981C173.399 53.4981 173.827 53.4019 174.222 53.2095C174.628 53.0063 174.971 52.6963 175.248 52.2793L176.419 53.017C176.088 53.605 175.617 54.0594 175.008 54.3802C174.409 54.6902 173.725 54.8452 172.955 54.8452ZM182.072 54.8452C181.163 54.8452 180.361 54.6581 179.666 54.2839C178.982 53.9098 178.448 53.3966 178.063 52.7444C177.688 52.0922 177.501 51.3438 177.501 50.4992C177.501 49.6546 177.683 48.9062 178.047 48.254C178.421 47.6019 178.929 47.094 179.57 46.7305C180.222 46.3563 180.955 46.1692 181.767 46.1692C182.59 46.1692 183.317 46.351 183.948 46.7145C184.579 47.078 185.071 47.5912 185.424 48.254C185.787 48.9062 185.969 49.6706 185.969 50.5473C185.969 50.6115 185.964 50.6863 185.953 50.7718C185.953 50.8574 185.948 50.9376 185.937 51.0124H178.704V49.9058H185.135L184.51 50.2907C184.52 49.7455 184.408 49.259 184.173 48.8314C183.938 48.4037 183.611 48.0723 183.194 47.8371C182.788 47.5912 182.312 47.4682 181.767 47.4682C181.233 47.4682 180.757 47.5912 180.34 47.8371C179.923 48.0723 179.597 48.409 179.362 48.8474C179.126 49.275 179.009 49.7669 179.009 50.3228V50.5794C179.009 51.146 179.137 51.6539 179.394 52.1029C179.661 52.5413 180.03 52.8834 180.5 53.1293C180.971 53.3752 181.511 53.4981 182.12 53.4981C182.622 53.4981 183.077 53.4126 183.483 53.2415C183.9 53.0705 184.264 52.8139 184.574 52.4718L185.424 53.4661C185.039 53.9151 184.558 54.2572 183.98 54.4924C183.414 54.7276 182.778 54.8452 182.072 54.8452ZM192.613 54.8452C191.907 54.8452 191.261 54.6849 190.673 54.3641C190.095 54.0327 189.63 53.5462 189.277 52.9048C188.935 52.2633 188.764 51.4614 188.764 50.4992C188.764 49.537 188.93 48.7351 189.261 48.0937C189.603 47.4522 190.063 46.9711 190.641 46.6503C191.229 46.3296 191.886 46.1692 192.613 46.1692C193.447 46.1692 194.185 46.351 194.826 46.7145C195.468 47.078 195.976 47.5858 196.35 48.238C196.724 48.8795 196.911 49.6332 196.911 50.4992C196.911 51.3652 196.724 52.1243 196.35 52.7765C195.976 53.4286 195.468 53.9365 194.826 54.3C194.185 54.6635 193.447 54.8452 192.613 54.8452ZM188.107 57.8602V46.2494H189.582V48.5427L189.486 50.5152L189.646 52.4878V57.8602H188.107ZM192.485 53.4981C193.03 53.4981 193.517 53.3752 193.944 53.1293C194.383 52.8834 194.725 52.5359 194.971 52.0869C195.227 51.6271 195.355 51.0979 195.355 50.4992C195.355 49.8898 195.227 49.3659 194.971 48.9276C194.725 48.4785 194.383 48.1311 193.944 47.8852C193.517 47.6393 193.03 47.5163 192.485 47.5163C191.95 47.5163 191.464 47.6393 191.025 47.8852C190.598 48.1311 190.256 48.4785 189.999 48.9276C189.753 49.3659 189.63 49.8898 189.63 50.4992C189.63 51.0979 189.753 51.6271 189.999 52.0869C190.256 52.5359 190.598 52.8834 191.025 53.1293C191.464 53.3752 191.95 53.4981 192.485 53.4981ZM201.957 54.8452C201.102 54.8452 200.439 54.6154 199.968 54.1557C199.498 53.6959 199.263 53.0384 199.263 52.1831V44.3891H200.802V52.1189C200.802 52.5787 200.915 52.9315 201.139 53.1774C201.374 53.4233 201.706 53.5462 202.133 53.5462C202.614 53.5462 203.015 53.4126 203.336 53.1453L203.817 54.2519C203.582 54.455 203.299 54.6047 202.967 54.7009C202.647 54.7971 202.31 54.8452 201.957 54.8452ZM197.819 47.5163V46.2494H203.24V47.5163H197.819Z" fill="white"/>
<path d="M214.25 45.2795H230.375" stroke="#01F813" stroke-width="1.72441" stroke-linecap="round" stroke-linejoin="round"/>
<path d="M230.375 45.2794L225.927 42.4993" stroke="#01F813" stroke-width="1.72441" stroke-linecap="round" stroke-linejoin="round"/>
<path d="M225.927 48.0597L230.375 45.2795" stroke="#01F813" stroke-width="1.72441" stroke-linecap="round" stroke-linejoin="round"/>
<path d="M230.387 51.3499L214.263 51.2795" stroke="#01F813" stroke-width="1.72441" stroke-linecap="round" stroke-linejoin="round"/>
<path d="M214.262 51.2793L218.698 54.0789" stroke="#01F813" stroke-width="1.72441" stroke-linecap="round" stroke-linejoin="round"/>
<path d="M218.723 48.5188L214.262 51.2795" stroke="#01F813" stroke-width="1.72441" stroke-linecap="round" stroke-linejoin="round"/>
</svg>
